<mxfile host="app.diagrams.net" modified="2024-02-06T20:49:15.692Z" agent="Mozilla/5.0 (Windows NT 10.0; Win64; x64) AppleWebKit/537.36 (KHTML, like Gecko) Chrome/121.0.0.0 Safari/537.36" version="23.1.1" etag="-zVX9l7bjFkhK6tB6fyp" type="github">
  <diagram name="PÃ¡gina-1" id="3TiemXMbdLp8bZP96c1r">
    <mxGraphModel>
      <root>
        <mxCell id="0" />
        <mxCell id="1" parent="0" />
      </root>
    </mxGraphModel>
  </diagram>
</mxfile>
